<svg width="320" height="208" viewBox="0 0 320 208" fill="none" xmlns="http://www.w3.org/2000/svg">
<path d="M320 8.5C320 13.5 320 43.3198 320 43.3198C305.675 68.2279 278.796 85 248 85C202.16 85 165 45.8396 165 1.47147e-09C165 1.47147e-09 306.065 0.000169145 311.5 1.47147e-09C316.935 -0.000169142 320 3.5 320 8.5Z" fill="#6383A7"/>
<path d="M212 21C140.755 21 83 77.8598 83 148C83 169.702 88.5289 190.132 98.2757 208H310.5C319 208 319.987 206 319.987 197.5V78.5C296.947 43.8729 257.187 21 212 21Z" fill="#2A394A"/>
<circle cx="74" cy="134" r="35" fill="#34475C"/>
<path d="M109 15C109 51.4508 79.4508 81 43 81C26.5744 81 11.5503 74.9997 0 65.0715V7C1.09632 1.50653 3.12547 0.171848 8.5 0H107.288C108.408 4.81889 109 9.8403 109 15Z" fill="#425973"/>
</svg>
