<svg width="100%" height="446" viewBox="0 0 1033 446" fill="none" xmlns="http://www.w3.org/2000/svg">
<path d="M0 29C0 12.9837 12.9837 0 29 0H1003C1019.02 0 1032 12.9837 1032 29V444H0V29Z" fill="#1F2A37"/>
<path d="M631 177.5C241.5 -87 45 61.5 0 145.5V444C0 444 629.455 445 1031.5 445V237C988.5 251.5 808.056 297.734 631 177.5Z" fill="#425973"/>
<path d="M405.5 89.5001C181.9 -30.4999 42 74.8334 0 142.5V444.5H1032.5V233C699.5 349 685 239.5 405.5 89.5001Z" fill="#34475C"/>
<path d="M309.5 67.7949C143.5 -13.0051 34 84.1282 0 142.795V445.295H1032.5V234.795C1032.5 214.795 929 328.295 751.5 314.295C574 300.295 517 168.795 309.5 67.7949Z" fill="url(#paint0_linear)"/>
<defs>
<linearGradient id="paint0_linear" x1="516.25" y1="37" x2="516.25" y2="445.295" gradientUnits="userSpaceOnUse">
<stop stop-color="#2A394A"/>
<stop offset="1" stop-color="#1F2A37"/>
</linearGradient>
</defs>
</svg>
