<svg width="100%" height="459" viewBox="0 0 100% 459" fill="none" xmlns="http://www.w3.org/2000/svg">
<path d="M1032.5 246.5V0.5H0V158.5C71 40 176.5 49.5 189.5 46L256.5 48.5L439 122L608.5 235L857.5 308.5L1032.5 246.5Z" fill="url(#paint0_linear)"/>
<path d="M631 190.501C241.5 -73.9985 42.5 69.0012 0 158.501C83.5 8.99975 308.5 7.99976 515.5 190.501C749 407.5 1032 246 1032 246C989 260.5 808.056 310.736 631 190.501Z" fill="#425973"/>
<path d="M405.5 102.501C181.9 -17.499 53.6897 69.001 0 155.501C53.6897 69.0009 190.5 -15.4991 405.5 134.501C653.5 332 763.5 399 1032.5 246.001C699.5 362.001 685 252.501 405.5 102.501Z" fill="#34475C"/>
<defs>
<linearGradient id="paint0_linear" x1="516" y1="70.0001" x2="516" y2="200.5" gradientUnits="userSpaceOnUse">
<stop stop-color="#111827"/>
<stop offset="1" stop-color="#1E2836"/>
</linearGradient>
</defs>
</svg>
