<svg width="200" height="200" viewBox="0 0 299 299" fill="none" xmlns="http://www.w3.org/2000/svg">
<circle cx="149.5" cy="149.5" r="149.5" fill="#2C3C4F"/>
<path d="M47.7789 105.082H47.1287V139.908H47.7789V105.082Z" fill="white"/>
<path d="M47.7789 150.275H47.1287V180.919H47.7789V150.275Z" fill="white"/>
<path d="M96.5507 185.801H46.1533V186.452H96.5507V185.801Z" fill="white"/>
<path d="M170.684 82.9485H170.033V115.822H170.684V82.9485Z" fill="white"/>
<path d="M165.156 121.03H117.349V121.681H165.156V121.03Z" fill="white"/>
<path d="M112.483 126.237H111.832V170.177H112.483V126.237Z" fill="white"/>
<path d="M47.4537 150.648C46.3605 150.648 45.2918 150.324 44.3828 149.716C43.4739 149.108 42.7654 148.244 42.347 147.233C41.9287 146.222 41.8192 145.109 42.0325 144.036C42.2458 142.962 42.7722 141.976 43.5452 141.203C44.3183 140.429 45.3032 139.902 46.3754 139.688C47.4476 139.475 48.559 139.584 49.569 140.003C50.579 140.422 51.4423 141.131 52.0496 142.041C52.657 142.951 52.9812 144.021 52.9812 145.115C52.9796 146.582 52.3967 147.989 51.3604 149.026C50.3242 150.063 48.9192 150.647 47.4537 150.648V150.648ZM47.4537 140.233C46.4891 140.233 45.5462 140.519 44.7441 141.056C43.9421 141.592 43.317 142.355 42.9478 143.247C42.5787 144.139 42.4821 145.121 42.6703 146.068C42.8585 147.015 43.323 147.885 44.005 148.567C44.6871 149.25 45.5562 149.715 46.5022 149.904C47.4483 150.092 48.429 149.995 49.3201 149.626C50.2113 149.256 50.973 148.631 51.509 147.828C52.0449 147.025 52.3309 146.081 52.3309 145.115C52.3295 143.821 51.8152 142.58 50.9008 141.665C49.9865 140.749 48.7468 140.234 47.4537 140.233V140.233Z" fill="white"/>
<path d="M47.7787 191.334C50.6519 191.334 52.981 189.002 52.981 186.126C52.981 183.25 50.6519 180.918 47.7787 180.918C44.9056 180.918 42.5764 183.25 42.5764 186.126C42.5764 189.002 44.9056 191.334 47.7787 191.334Z" fill="#6C63FF"/>
<path d="M112.233 201.265C120.834 201.265 127.807 194.297 127.807 185.702C127.807 177.107 120.834 170.14 112.233 170.14C103.632 170.14 96.6594 177.107 96.6594 185.702C96.6594 194.297 103.632 201.265 112.233 201.265Z" fill="#6C63FF"/>
<path d="M236.038 144.79H182.064V145.441H236.038V144.79Z" fill="white"/>
<path d="M177.186 150.275H176.536V180.919H177.186V150.275Z" fill="white"/>
<path d="M171.334 185.801H128.09V186.452H171.334V185.801Z" fill="white"/>
<path d="M249.043 188.73H204.173V189.381H249.043V188.73Z" fill="white"/>
<path d="M199.621 194.588H198.971V222.254H199.621V194.588Z" fill="white"/>
<path d="M193.769 227.137H117.36V227.788H193.769V227.137Z" fill="white"/>
<path d="M112.483 202.075H111.833V222.255H112.483V202.075Z" fill="white"/>
<path d="M176.861 150.323C179.734 150.323 182.063 147.992 182.063 145.115C182.063 142.239 179.734 139.908 176.861 139.908C173.988 139.908 171.659 142.239 171.659 145.115C171.659 147.992 173.988 150.323 176.861 150.323Z" fill="#6C63FF"/>
<path d="M170.358 126.563C169.265 126.563 168.196 126.238 167.287 125.63C166.378 125.022 165.67 124.158 165.252 123.147C164.833 122.136 164.724 121.024 164.937 119.95C165.15 118.877 165.677 117.891 166.45 117.117C167.223 116.343 168.208 115.816 169.28 115.603C170.352 115.389 171.464 115.499 172.474 115.918C173.484 116.337 174.347 117.046 174.954 117.956C175.562 118.866 175.886 119.935 175.886 121.03C175.884 122.497 175.301 123.903 174.265 124.941C173.229 125.978 171.824 126.561 170.358 126.563V126.563ZM170.358 116.148C169.394 116.148 168.451 116.434 167.649 116.97C166.847 117.507 166.222 118.269 165.852 119.161C165.483 120.054 165.387 121.035 165.575 121.982C165.763 122.929 166.228 123.799 166.91 124.482C167.592 125.165 168.461 125.63 169.407 125.818C170.353 126.007 171.334 125.91 172.225 125.54C173.116 125.171 173.878 124.545 174.413 123.742C174.949 122.939 175.235 121.995 175.235 121.03C175.234 119.735 174.72 118.494 173.805 117.579C172.891 116.664 171.651 116.149 170.358 116.148V116.148Z" fill="white"/>
<path d="M112.158 126.563C111.064 126.563 109.996 126.238 109.087 125.63C108.178 125.022 107.469 124.158 107.051 123.147C106.633 122.136 106.523 121.024 106.736 119.95C106.95 118.877 107.476 117.891 108.249 117.117C109.022 116.343 110.007 115.816 111.079 115.603C112.151 115.389 113.263 115.499 114.273 115.918C115.283 116.337 116.146 117.046 116.754 117.956C117.361 118.866 117.685 119.935 117.685 121.03C117.683 122.497 117.101 123.903 116.064 124.941C115.028 125.978 113.623 126.561 112.158 126.563V126.563ZM112.158 116.148C111.193 116.148 110.25 116.434 109.448 116.97C108.646 117.507 108.021 118.269 107.652 119.161C107.283 120.054 107.186 121.035 107.374 121.982C107.562 122.929 108.027 123.799 108.709 124.482C109.391 125.165 110.26 125.63 111.206 125.818C112.152 126.007 113.133 125.91 114.024 125.54C114.915 125.171 115.677 124.545 116.213 123.742C116.749 122.939 117.035 121.995 117.035 121.03C117.033 119.735 116.519 118.494 115.605 117.579C114.69 116.664 113.451 116.149 112.158 116.148V116.148Z" fill="white"/>
<path d="M198.971 194.914C197.878 194.914 196.809 194.59 195.9 193.982C194.991 193.374 194.283 192.509 193.864 191.498C193.446 190.487 193.337 189.375 193.55 188.301C193.763 187.228 194.29 186.242 195.063 185.468C195.836 184.694 196.82 184.167 197.893 183.954C198.965 183.74 200.076 183.85 201.086 184.269C202.096 184.688 202.96 185.397 203.567 186.307C204.174 187.217 204.499 188.286 204.499 189.381C204.497 190.848 203.914 192.254 202.878 193.292C201.842 194.329 200.437 194.912 198.971 194.914V194.914ZM198.971 184.499C198.006 184.499 197.063 184.785 196.261 185.321C195.459 185.858 194.834 186.62 194.465 187.513C194.096 188.405 193.999 189.386 194.188 190.333C194.376 191.28 194.84 192.15 195.522 192.833C196.204 193.516 197.074 193.981 198.02 194.169C198.966 194.358 199.946 194.261 200.837 193.891C201.729 193.522 202.49 192.896 203.026 192.093C203.562 191.29 203.848 190.346 203.848 189.381C203.847 188.086 203.332 186.845 202.418 185.93C201.504 185.015 200.264 184.5 198.971 184.499V184.499Z" fill="white"/>
<path d="M198.971 232.67C201.844 232.67 204.173 230.339 204.173 227.463C204.173 224.586 201.844 222.255 198.971 222.255C196.098 222.255 193.769 224.586 193.769 227.463C193.769 230.339 196.098 232.67 198.971 232.67Z" fill="#6C63FF"/>
<path d="M112.158 232.995C111.064 232.995 109.996 232.671 109.087 232.063C108.178 231.455 107.469 230.59 107.051 229.579C106.633 228.568 106.523 227.456 106.736 226.382C106.95 225.309 107.476 224.323 108.249 223.549C109.022 222.776 110.007 222.249 111.079 222.035C112.151 221.822 113.263 221.931 114.273 222.35C115.283 222.769 116.146 223.478 116.754 224.388C117.361 225.298 117.685 226.368 117.685 227.462C117.683 228.929 117.101 230.335 116.064 231.373C115.028 232.41 113.623 232.993 112.158 232.995V232.995ZM112.158 222.58C111.193 222.58 110.25 222.866 109.448 223.402C108.646 223.939 108.021 224.701 107.652 225.594C107.283 226.486 107.186 227.467 107.374 228.414C107.562 229.361 108.027 230.231 108.709 230.914C109.391 231.597 110.26 232.062 111.206 232.25C112.152 232.439 113.133 232.342 114.024 231.972C114.915 231.603 115.677 230.977 116.213 230.174C116.749 229.371 117.035 228.428 117.035 227.462C117.033 226.167 116.519 224.927 115.605 224.011C114.69 223.096 113.451 222.581 112.158 222.58V222.58Z" fill="white"/>
<path d="M176.536 191.659C175.443 191.659 174.374 191.335 173.465 190.727C172.556 190.119 171.848 189.254 171.43 188.243C171.011 187.232 170.902 186.12 171.115 185.046C171.328 183.973 171.855 182.987 172.628 182.213C173.401 181.44 174.386 180.913 175.458 180.699C176.53 180.486 177.642 180.595 178.652 181.014C179.662 181.433 180.525 182.142 181.132 183.052C181.74 183.962 182.064 185.032 182.064 186.126C182.062 187.593 181.479 188.999 180.443 190.037C179.407 191.074 178.002 191.658 176.536 191.659V191.659ZM176.536 181.244C175.572 181.244 174.629 181.53 173.827 182.067C173.025 182.603 172.399 183.366 172.03 184.258C171.661 185.15 171.565 186.131 171.753 187.078C171.941 188.025 172.405 188.895 173.088 189.578C173.77 190.261 174.639 190.726 175.585 190.914C176.531 191.103 177.511 191.006 178.403 190.637C179.294 190.267 180.056 189.641 180.591 188.838C181.127 188.035 181.413 187.092 181.413 186.126C181.412 184.832 180.898 183.591 179.983 182.675C179.069 181.76 177.829 181.245 176.536 181.244V181.244Z" fill="white"/>
<path d="M47.7788 89.458C46.4926 89.458 45.2354 89.8398 44.166 90.5551C43.0966 91.2704 42.2631 92.287 41.7709 93.4765C41.2787 94.666 41.1499 95.9749 41.4008 97.2376C41.6518 98.5003 42.2711 99.6602 43.1805 100.571C44.09 101.481 45.2487 102.101 46.5101 102.352C47.7716 102.603 49.0791 102.474 50.2673 101.982C51.4556 101.489 52.4712 100.655 53.1857 99.5842C53.9003 98.5137 54.2817 97.2551 54.2817 95.9676C54.2766 94.2427 53.5899 92.5899 52.3714 91.3702C51.153 90.1505 49.5019 89.4631 47.7788 89.458V89.458ZM47.7788 91.4109C48.1646 91.4109 48.5418 91.5254 48.8626 91.74C49.1834 91.9546 49.4335 92.2596 49.5811 92.6164C49.7288 92.9733 49.7674 93.366 49.6921 93.7448C49.6169 94.1236 49.4311 94.4716 49.1582 94.7447C48.8854 95.0178 48.5378 95.2038 48.1594 95.2792C47.7809 95.3545 47.3887 95.3158 47.0322 95.168C46.6757 95.0202 46.371 94.7699 46.1567 94.4488C45.9423 94.1276 45.8279 93.75 45.8279 93.3638C45.8296 92.8464 46.0357 92.3507 46.4012 91.9848C46.7667 91.6189 47.2619 91.4126 47.7788 91.4109V91.4109ZM47.7788 100.812C47.0081 100.809 46.2499 100.617 45.57 100.254C44.8901 99.8907 44.309 99.3669 43.877 98.728C43.9083 97.426 46.4782 96.7094 47.7788 96.7094C49.0793 96.7094 51.6492 97.426 51.6805 98.728C51.2481 99.3664 50.6668 99.8898 49.987 100.253C49.3072 100.616 48.5493 100.808 47.7788 100.812V100.812Z" fill="white"/>
<path d="M170.358 67C169.072 67 167.815 67.3818 166.746 68.0971C165.676 68.8124 164.843 69.829 164.35 71.0185C163.858 72.208 163.73 73.5169 163.98 74.7796C164.231 76.0423 164.851 77.2022 165.76 78.1126C166.67 79.023 167.828 79.643 169.09 79.8942C170.351 80.1454 171.659 80.0164 172.847 79.5237C174.035 79.031 175.051 78.1967 175.765 77.1262C176.48 76.0557 176.861 74.7971 176.861 73.5096C176.856 71.7847 176.17 70.1319 174.951 68.9122C173.733 67.6925 172.082 67.005 170.358 67V67ZM170.358 68.9529C170.744 68.9529 171.121 69.0674 171.442 69.282C171.763 69.4966 172.013 69.8016 172.161 70.1584C172.308 70.5153 172.347 70.9079 172.272 71.2868C172.196 71.6656 172.011 72.0136 171.738 72.2867C171.465 72.5598 171.117 72.7458 170.739 72.8211C170.361 72.8965 169.968 72.8578 169.612 72.71C169.255 72.5622 168.951 72.3119 168.736 71.9907C168.522 71.6696 168.408 71.292 168.408 70.9058C168.409 70.3884 168.615 69.8926 168.981 69.5268C169.346 69.1609 169.842 68.9546 170.358 68.9529V68.9529ZM170.358 78.3543C169.588 78.3508 168.83 78.1591 168.15 77.7959C167.47 77.4327 166.889 76.9089 166.457 76.27C166.488 74.968 169.058 74.2514 170.358 74.2514C171.659 74.2514 174.229 74.968 174.26 76.27C173.828 76.9084 173.246 77.4318 172.567 77.795C171.887 78.1581 171.129 78.3501 170.358 78.3543Z" fill="white"/>
<path d="M245.141 138.28C243.855 138.28 242.598 138.662 241.529 139.377C240.459 140.093 239.626 141.109 239.133 142.299C238.641 143.488 238.512 144.797 238.763 146.06C239.014 147.323 239.634 148.483 240.543 149.393C241.453 150.303 242.611 150.923 243.873 151.174C245.134 151.426 246.442 151.297 247.63 150.804C248.818 150.311 249.834 149.477 250.548 148.406C251.263 147.336 251.644 146.077 251.644 144.79C251.639 143.065 250.952 141.412 249.734 140.192C248.516 138.973 246.864 138.285 245.141 138.28ZM245.141 140.233C245.527 140.233 245.904 140.348 246.225 140.562C246.546 140.777 246.796 141.082 246.944 141.439C247.091 141.796 247.13 142.188 247.055 142.567C246.979 142.946 246.794 143.294 246.521 143.567C246.248 143.84 245.9 144.026 245.522 144.101C245.143 144.177 244.751 144.138 244.395 143.99C244.038 143.842 243.734 143.592 243.519 143.271C243.305 142.95 243.19 142.572 243.19 142.186C243.192 141.669 243.398 141.173 243.764 140.807C244.129 140.441 244.624 140.235 245.141 140.233ZM245.141 149.635C244.371 149.631 243.612 149.439 242.933 149.076C242.253 148.713 241.672 148.189 241.24 147.55C241.271 146.248 243.841 145.532 245.141 145.532C246.442 145.532 249.012 146.248 249.043 147.55C248.611 148.189 248.029 148.712 247.35 149.075C246.67 149.438 245.912 149.63 245.141 149.635V149.635Z" fill="white"/>
<path d="M257.497 182.22C256.211 182.22 254.954 182.602 253.884 183.317C252.815 184.033 251.981 185.049 251.489 186.239C250.997 187.428 250.868 188.737 251.119 190C251.37 191.263 251.989 192.422 252.899 193.333C253.808 194.243 254.967 194.863 256.228 195.114C257.49 195.366 258.797 195.237 259.986 194.744C261.174 194.251 262.189 193.417 262.904 192.346C263.619 191.276 264 190.017 264 188.73C263.995 187.005 263.308 185.352 262.09 184.132C260.871 182.913 259.22 182.225 257.497 182.22V182.22ZM257.497 184.173C257.883 184.173 258.26 184.288 258.581 184.502C258.902 184.717 259.152 185.022 259.299 185.379C259.447 185.735 259.486 186.128 259.41 186.507C259.335 186.886 259.149 187.234 258.876 187.507C258.604 187.78 258.256 187.966 257.878 188.041C257.499 188.117 257.107 188.078 256.75 187.93C256.394 187.782 256.089 187.532 255.875 187.211C255.661 186.89 255.546 186.512 255.546 186.126C255.548 185.609 255.754 185.113 256.119 184.747C256.485 184.381 256.98 184.175 257.497 184.173V184.173ZM257.497 193.575C256.726 193.571 255.968 193.379 255.288 193.016C254.608 192.653 254.027 192.129 253.595 191.49C253.627 190.188 256.196 189.472 257.497 189.472C258.798 189.472 261.368 190.188 261.399 191.49C260.966 192.129 260.385 192.652 259.705 193.015C259.025 193.378 258.268 193.57 257.497 193.575V193.575Z" fill="white"/>
</svg>
