<svg width="200" height="200" viewBox="0 0 299 299" fill="none" xmlns="http://www.w3.org/2000/svg">
<circle cx="149.5" cy="149.5" r="149.5" fill="#2C3C4F"/>
<path d="M291 98.1357H7.58228V201.583H291V98.1357Z" fill="#2C3C4F"/>
<path d="M8.70055 150L8 149.037C8.06964 148.976 15.0901 142.905 26.3038 139.432C32.7997 137.401 39.5693 136.633 46.3066 137.162C54.6623 137.828 62.9704 140.533 71 145.2L70.4741 146.289C52.6102 135.905 36.76 137.473 26.609 140.617C15.6111 144.023 8.76841 149.94 8.70055 150Z" fill="#F2F2F2"/>
<path d="M76.96 149.321C73.3098 148.687 68.4795 148.423 65 149.097L69.7411 145.109L70.8437 139C71.9831 142.369 74.6041 146.451 76.96 149.321Z" fill="#F2F2F2"/>
<path d="M195.701 148L195 147.037C195.07 146.976 202.09 140.905 213.304 137.432C219.8 135.401 226.569 134.633 233.307 135.162C241.662 135.828 249.97 138.533 258 143.2L257.474 144.289C239.61 133.905 223.76 135.473 213.609 138.617C202.611 142.023 195.768 147.94 195.701 148Z" fill="#F2F2F2"/>
<path d="M263.96 147.321C260.31 146.687 255.479 146.423 252 147.097L256.741 143.109L257.844 137C258.983 140.369 261.604 144.451 263.96 147.321Z" fill="#F2F2F2"/>
<path d="M137.209 172.963C131.366 172.956 125.552 172.139 119.931 170.536C107.721 167.074 100.076 161.02 100 160.96L100.763 160C100.837 160.059 108.325 165.979 120.314 169.368C131.357 172.49 148.599 174.041 168.029 163.7L168.602 164.785C159.858 169.438 150.812 172.134 141.713 172.799C140.213 172.908 138.712 172.963 137.209 172.963Z" fill="#F2F2F2"/>
<path d="M174.959 160C172.604 162.87 169.983 166.953 168.844 170.322L167.74 164.212L163 160.225C166.479 160.899 171.31 160.634 174.959 160Z" fill="#F2F2F2"/>
<path d="M196.082 128.376H176.209V128.99H196.082V128.376Z" fill="#6C63FF"/>
<path d="M196.082 134.516H176.209V135.13H196.082V134.516Z" fill="#6C63FF"/>
<path d="M196.082 140.655H176.209V141.269H196.082V140.655Z" fill="#6C63FF"/>
<path d="M97.8065 164.598H77.9336V165.212H97.8065V164.598Z" fill="#6C63FF"/>
<path d="M97.8065 170.737H77.9336V171.351H97.8065V170.737Z" fill="#6C63FF"/>
<path d="M97.8065 176.876H77.9336V177.49H97.8065V176.876Z" fill="#6C63FF"/>
<path d="M281.108 163.598H261.235V164.212H281.108V163.598Z" fill="#6C63FF"/>
<path d="M281.108 169.737H261.235V170.351H281.108V169.737Z" fill="#6C63FF"/>
<path d="M281.108 175.876H261.235V176.49H281.108V175.876Z" fill="#6C63FF"/>
<path d="M88 161C91.866 161 95 157.866 95 154C95 150.134 91.866 147 88 147C84.134 147 81 150.134 81 154C81 157.866 84.134 161 88 161Z" fill="#6C63FF"/>
<path d="M186 161C189.866 161 193 157.866 193 154C193 150.134 189.866 147 186 147C182.134 147 179 150.134 179 154C179 157.866 182.134 161 186 161Z" fill="#6C63FF"/>
<path d="M142 136C145.866 136 149 132.866 149 129C149 125.134 145.866 122 142 122C138.134 122 135 125.134 135 129C135 132.866 138.134 136 142 136Z" fill="#6C63FF"/>
<path d="M271 161C274.866 161 278 157.866 278 154C278 150.134 274.866 147 271 147C267.134 147 264 150.134 264 154C264 157.866 267.134 161 271 161Z" fill="#6C63FF"/>
<path d="M142 144C139.033 144 136.133 143.12 133.666 141.472C131.2 139.824 129.277 137.481 128.142 134.74C127.006 131.999 126.709 128.983 127.288 126.074C127.867 123.164 129.296 120.491 131.393 118.393C133.491 116.296 136.164 114.867 139.074 114.288C141.983 113.709 144.999 114.006 147.74 115.142C150.481 116.277 152.824 118.2 154.472 120.666C156.12 123.133 157 126.033 157 129C156.996 132.977 155.414 136.79 152.602 139.602C149.79 142.414 145.977 143.996 142 144ZM142 115.154C139.262 115.154 136.584 115.966 134.307 117.487C132.031 119.009 130.256 121.171 129.208 123.701C128.16 126.231 127.886 129.015 128.42 131.701C128.954 134.387 130.273 136.854 132.209 138.791C134.146 140.727 136.613 142.046 139.299 142.58C141.985 143.114 144.769 142.84 147.299 141.792C149.829 140.744 151.991 138.97 153.513 136.693C155.034 134.416 155.846 131.739 155.846 129C155.842 125.329 154.382 121.81 151.786 119.214C149.19 116.618 145.671 115.158 142 115.154Z" fill="#F2F2F2"/>
</svg>
