<svg width="200" height="200" viewBox="0 0 299 299" fill="none" xmlns="http://www.w3.org/2000/svg">
<circle cx="149.5" cy="149.5" r="149.5" fill="#2C3C4F"/>
<path opacity="0.2" d="M31.2001 203.67L44.985 193.655L99.4678 185.07L132.946 176.485L151.325 183.709L176.269 148.585L193.336 152.162L218.936 124.261L232.065 128.554L262.26 79.1914V203.601L31.2001 203.67Z" fill="white"/>
<path d="M32.7743 203.357C32.4404 203.357 32.1201 203.225 31.884 202.991C31.6478 202.756 31.5151 202.438 31.5151 202.106C31.5151 201.774 31.6478 201.456 31.884 201.222C32.1201 200.987 32.4404 200.855 32.7743 200.855C90.9579 200.855 146.447 189.281 189.02 168.263C228.94 148.555 254.38 121.83 258.814 94.94C258.841 94.7778 258.899 94.6224 258.986 94.4827C259.073 94.343 259.187 94.2218 259.322 94.1259C259.456 94.0299 259.608 93.9612 259.769 93.9237C259.93 93.8862 260.097 93.8805 260.26 93.9071C260.423 93.9336 260.58 93.9919 260.72 94.0785C260.861 94.1651 260.983 94.2784 261.079 94.4119C261.176 94.5453 261.245 94.6964 261.283 94.8564C261.32 95.0164 261.326 95.1822 261.299 95.3444C258.996 109.313 251.519 123.015 239.077 136.07C226.806 148.946 210.342 160.531 190.141 170.504C147.226 191.69 91.3392 203.357 32.7743 203.357Z" fill="#6C63FF"/>
<path d="M271.775 203.61H31.2719V85.5566H32.531V202.359H271.775V203.61Z" fill="#E6E6E6"/>
</svg>
