<svg width="200" height="200" viewBox="0 0 299 299" fill="none" xmlns="http://www.w3.org/2000/svg">
<circle cx="149.5" cy="149.5" r="149.5" fill="#2C3C4F"/>
<path d="M239.462 88.8545H62.762V172.872H239.462V88.8545Z" fill="#E6E6E6"/>
<path d="M234.41 96.0591H67.8147V166.158H234.41V96.0591Z" fill="white"/>
<path d="M239.387 84H62.6865V91.522H239.387V84Z" fill="#6C63FF"/>
<path d="M68.2649 88.8733C69.0333 88.8733 69.6562 88.2491 69.6562 87.4791C69.6562 86.7092 69.0333 86.085 68.2649 86.085C67.4965 86.085 66.8735 86.7092 66.8735 87.4791C66.8735 88.2491 67.4965 88.8733 68.2649 88.8733Z" fill="white"/>
<path d="M73.5461 88.8733C74.3146 88.8733 74.9375 88.2491 74.9375 87.4791C74.9375 86.7092 74.3146 86.085 73.5461 86.085C72.7777 86.085 72.1548 86.7092 72.1548 87.4791C72.1548 88.2491 72.7777 88.8733 73.5461 88.8733Z" fill="white"/>
<path d="M78.8274 88.8733C79.5958 88.8733 80.2187 88.2491 80.2187 87.4791C80.2187 86.7092 79.5958 86.085 78.8274 86.085C78.059 86.085 77.436 86.7092 77.436 87.4791C77.436 88.2491 78.059 88.8733 78.8274 88.8733Z" fill="white"/>
<path d="M107.162 149.756H191.361V135.295C191.348 133.771 191.031 132.264 190.429 130.863C189.828 129.463 188.953 128.197 187.856 127.14L187.833 127.117C186.329 125.605 181.303 121.768 176.103 122.093C173.356 122.265 171.005 123.591 169.114 126.036C163.227 133.649 155.495 131.079 151.409 128.87C147.809 126.922 144.132 126.008 140.48 126.154C135.366 126.354 128.167 128.242 122.917 136.099C120.911 139.097 116.551 143.167 107.162 145.559V149.756Z" fill="#E4E4E4"/>
<path d="M196.124 150.093H107.323C107.25 150.093 107.179 150.064 107.127 150.011C107.075 149.959 107.045 149.888 107.045 149.815V107.166C107.045 107.092 107.075 107.021 107.127 106.969C107.179 106.917 107.25 106.887 107.323 106.887C107.397 106.887 107.468 106.917 107.52 106.969C107.572 107.021 107.601 107.092 107.601 107.166V149.536H196.124C196.198 149.536 196.269 149.565 196.321 149.618C196.373 149.67 196.402 149.741 196.402 149.815C196.402 149.888 196.373 149.959 196.321 150.011C196.269 150.064 196.198 150.093 196.124 150.093Z" fill="#3F3D56"/>
<path d="M124.215 133.692H123.67V149.701H124.215V133.692Z" fill="#3F3D56"/>
<path d="M140.533 126.215H139.988V149.701H140.533V126.215Z" fill="#3F3D56"/>
<path d="M156.885 131.131H156.34V149.701H156.885V131.131Z" fill="#3F3D56"/>
<path d="M173.237 122.119H172.692V149.701H173.237V122.119Z" fill="#3F3D56"/>
<path d="M189.589 128.4H189.044V149.701H189.589V128.4Z" fill="#3F3D56"/>
<path d="M140.294 128.263C141.215 128.263 141.962 127.515 141.962 126.592C141.962 125.669 141.215 124.921 140.294 124.921C139.374 124.921 138.627 125.669 138.627 126.592C138.627 127.515 139.374 128.263 140.294 128.263Z" fill="#6C63FF"/>
<path d="M172.998 123.893C173.919 123.893 174.666 123.145 174.666 122.223C174.666 121.3 173.919 120.552 172.998 120.552C172.077 120.552 171.331 121.3 171.331 122.223C171.331 123.145 172.077 123.893 172.998 123.893Z" fill="#6C63FF"/>
<path d="M156.646 132.905C157.567 132.905 158.314 132.157 158.314 131.234C158.314 130.312 157.567 129.563 156.646 129.563C155.725 129.563 154.979 130.312 154.979 131.234C154.979 132.157 155.725 132.905 156.646 132.905Z" fill="#6C63FF"/>
<path d="M123.942 135.363C124.863 135.363 125.61 134.615 125.61 133.692C125.61 132.769 124.863 132.021 123.942 132.021C123.021 132.021 122.275 132.769 122.275 133.692C122.275 134.615 123.021 135.363 123.942 135.363Z" fill="#6C63FF"/>
<path d="M189.35 129.901C190.271 129.901 191.018 129.153 191.018 128.23C191.018 127.308 190.271 126.56 189.35 126.56C188.429 126.56 187.683 127.308 187.683 128.23C187.683 129.153 188.429 129.901 189.35 129.901Z" fill="#6C63FF"/>
<path d="M52.3133 235.691H55.6545L57.2439 222.777L52.3127 222.778L52.3133 235.691Z" fill="#FFB6B6"/>
<path d="M51.4607 234.598L58.0407 234.598H58.041C59.1531 234.598 60.2196 235.04 61.006 235.828C61.7924 236.616 62.2342 237.685 62.2343 238.799V238.936L51.4609 238.936L51.4607 234.598Z" fill="#2F2E41"/>
<path d="M68.1202 235.691H71.4614L73.0508 222.777L68.1196 222.778L68.1202 235.691Z" fill="#FFB6B6"/>
<path d="M67.2676 234.598L73.8476 234.598H73.8479C74.96 234.598 76.0265 235.04 76.8129 235.828C77.5993 236.616 78.0411 237.685 78.0412 238.799V238.936L67.2678 238.936L67.2676 234.598Z" fill="#2F2E41"/>
<path d="M74.3556 176.654C74.6381 176.332 74.8465 175.951 74.9663 175.539C75.0861 175.128 75.1144 174.695 75.0491 174.271C74.9838 173.847 74.8266 173.442 74.5885 173.086C74.3504 172.73 74.0372 172.43 73.6709 172.208L68.2336 146.049L62.3098 148.388L69.5173 173.366C69.1859 174.007 69.1008 174.748 69.278 175.448C69.4553 176.147 69.8826 176.758 70.479 177.163C71.0754 177.568 71.7994 177.741 72.5139 177.647C73.2284 177.553 73.8837 177.2 74.3556 176.654V176.654Z" fill="#FFB6B6"/>
<path d="M48.7299 171.617L46.2672 174.122C46.2672 174.122 43.6268 183.817 48.6794 195.774L52.0588 230.443L58.139 230.901L59.954 190.568L68.3289 203.956L66.8661 230.758L73.5871 230.603L76.6246 200.905L68.3289 169.914L48.7299 171.617Z" fill="#0C00E7"/>
<path d="M57.3408 174.991C53.6324 174.965 49.9288 174.72 46.2492 174.257L46.1011 174.237L49.7711 158.074L48.5074 137.279L60.4409 136.869C61.5212 136.83 62.5779 137.192 63.4081 137.886C64.2383 138.579 64.7836 139.556 64.9391 140.628L67.3815 157.219L69.6408 171.939L69.6105 171.983C67.987 174.369 62.5585 174.991 57.3408 174.991Z" fill="white"/>
<path d="M59.3552 140.309L61.7799 137.263C61.7799 137.263 66.0306 134.35 67.3758 140.592C68.7211 146.833 71.2206 156.966 71.2206 156.966L62.9089 157.641L59.3552 140.309Z" fill="white"/>
<path d="M36.3783 176.927C36.0959 176.605 35.8875 176.225 35.7677 175.813C35.6479 175.401 35.6196 174.968 35.6849 174.544C35.7502 174.12 35.9074 173.716 36.1455 173.36C36.3836 173.003 36.6968 172.703 37.0631 172.481L42.5004 146.323L48.4242 148.661L41.2167 173.639C41.5481 174.28 41.6332 175.021 41.456 175.721C41.2787 176.421 40.8514 177.031 40.255 177.437C39.6587 177.842 38.9346 178.014 38.2201 177.92C37.5056 177.826 36.8503 177.473 36.3783 176.927V176.927Z" fill="#FFB6B6"/>
<path d="M51.3788 140.582L48.9541 137.536C48.9541 137.536 44.7034 134.623 43.3581 140.865C42.0129 147.106 39.5134 157.239 39.5134 157.239L47.8251 157.913L51.3788 140.582Z" fill="white"/>
<path d="M61.597 133.827H45.7901C45.465 133.827 45.1532 133.698 44.9233 133.467C44.6934 133.237 44.5641 132.924 44.5637 132.599V125.771C44.5637 123.345 45.5256 121.018 47.2378 119.303C48.95 117.587 51.2722 116.623 53.6935 116.623C56.1149 116.623 58.4371 117.587 60.1493 119.303C61.8615 121.018 62.8234 123.345 62.8234 125.771V132.599C62.823 132.924 62.6937 133.237 62.4638 133.467C62.2339 133.698 61.9221 133.827 61.597 133.827V133.827Z" fill="#2F2E41"/>
<path d="M55.4388 133.417C59.1356 133.417 62.1325 130.414 62.1325 126.709C62.1325 123.005 59.1356 120.002 55.4388 120.002C51.742 120.002 48.7451 123.005 48.7451 126.709C48.7451 130.414 51.742 133.417 55.4388 133.417Z" fill="#FFB6B6"/>
<path d="M64.9834 126.454H55.3179L55.2187 125.064L54.7232 126.454H53.2349L53.0385 123.698L52.0563 126.454H49.1765V126.318C49.1787 124.399 49.9402 122.56 51.2942 121.203C52.6481 119.846 54.4838 119.083 56.3986 119.081H57.7613C59.676 119.083 61.5117 119.846 62.8657 121.203C64.2196 122.56 64.9812 124.399 64.9834 126.318V126.454Z" fill="#2F2E41"/>
<path d="M55.2387 135.102C55.1659 135.102 55.0933 135.096 55.0216 135.083L47.9441 133.832V122.111H55.7351L55.5422 122.336C52.8585 125.472 54.8804 130.558 56.3244 133.31C56.4308 133.512 56.4783 133.739 56.4613 133.967C56.4443 134.194 56.3636 134.412 56.2284 134.595C56.1152 134.752 55.9664 134.88 55.7944 134.968C55.6223 135.056 55.4319 135.102 55.2387 135.102Z" fill="#2F2E41"/>
<path d="M250.556 235.691H247.215L245.625 222.777L250.557 222.778L250.556 235.691Z" fill="#9E616A"/>
<path d="M251.408 238.936L240.635 238.936V238.799C240.635 237.685 241.077 236.616 241.863 235.828C242.649 235.04 243.716 234.598 244.828 234.598H244.828L251.408 234.598L251.408 238.936Z" fill="#2F2E41"/>
<path d="M238.564 235.691H235.223L233.634 222.777L238.565 222.778L238.564 235.691Z" fill="#9E616A"/>
<path d="M239.417 238.936L228.643 238.936V238.799C228.643 237.685 229.085 236.616 229.872 235.828C230.658 235.04 231.725 234.598 232.837 234.598H232.837L239.417 234.598L239.417 238.936Z" fill="#2F2E41"/>
<path d="M199.651 145.202C199.918 145.57 200.262 145.875 200.659 146.095C201.057 146.316 201.497 146.446 201.95 146.477C202.403 146.508 202.858 146.439 203.281 146.275C203.705 146.112 204.087 145.857 204.402 145.529L211.013 148.116L213.562 144.473L204.175 140.951C203.59 140.458 202.844 140.197 202.08 140.218C201.316 140.239 200.586 140.539 200.028 141.063C199.471 141.587 199.124 142.298 199.055 143.061C198.985 143.824 199.197 144.586 199.651 145.202V145.202Z" fill="#9E616A"/>
<path d="M238.522 167.271L229.818 170.116L232.726 231.887L239.443 232.054L242.881 188.492L243.662 231.882L251.969 232.341L255.031 167.271H238.522Z" fill="#2F2E41"/>
<path d="M232.649 130.858L254.99 125.994L257.474 145.269L255.405 154.48L256.234 168.476C256.234 168.476 238.569 177.286 229.818 170.116C229.818 170.116 236.851 151.603 232.774 142.937L232.649 130.858Z" fill="#3F3D56"/>
<path d="M236.518 133.585L232.649 130.858C232.649 130.858 232.421 130.541 229.196 134.318C225.972 138.095 219.431 144.103 219.431 144.103L208.53 140.007L206.544 147.359L219.213 153.275L237.15 141.272L236.518 133.585Z" fill="#3F3D56"/>
<path d="M256.238 175.702C256.649 175.508 257.012 175.226 257.302 174.875C257.592 174.525 257.802 174.116 257.916 173.676C258.031 173.235 258.048 172.775 257.967 172.328C257.885 171.88 257.706 171.456 257.443 171.085L261.211 165.058L258.115 161.871L252.913 170.456C252.32 170.941 251.926 171.626 251.804 172.382C251.681 173.138 251.84 173.913 252.25 174.559C252.66 175.206 253.293 175.679 254.028 175.89C254.763 176.101 255.549 176.034 256.238 175.702V175.702Z" fill="#9E616A"/>
<path d="M251.505 129.791L254.99 125.994C254.99 125.994 258.872 124.639 262.045 131.64C265.217 138.641 268.76 152.841 268.76 152.841L260.476 168.83L254.043 165.949L260.476 152.728L253.668 142.937L251.505 129.791Z" fill="#3F3D56"/>
<path d="M245.597 124.413C249.111 122.488 250.402 118.073 248.481 114.551C246.56 111.03 242.154 109.736 238.64 111.661C235.125 113.585 233.834 118.001 235.755 121.522C237.676 125.044 242.082 126.338 245.597 124.413Z" fill="#9E616A"/>
<path d="M248.939 112.227L249.29 111.518L247.521 110.637C247.521 110.637 245.57 107.456 242.039 108.35C238.507 109.244 236.919 109.779 236.919 109.779L235.154 110.669L236.04 111.552L234.451 112.087L235.512 112.615L234.277 113.327L234.942 116.973C234.942 116.973 236.046 114.207 238.169 115.264C240.292 116.321 244.175 114.718 244.175 114.718L247.548 121.26C247.548 121.26 248.244 118.966 249.485 119.578C249.485 119.578 252.655 114.519 248.939 112.227Z" fill="#2F2E41"/>
</svg>
