<svg width="100" height="100" viewBox="0 0 164 164" fill="none" xmlns="http://www.w3.org/2000/svg">
<g clip-path="url(#clip0)">
<path fill-rule="evenodd" clip-rule="evenodd" d="M41.6122 43.4537V31.7978C41.6122 31.7978 42.0972 29.5502 43.6969 28.5573C45.2962 27.5641 64.5139 15.7681 65.3015 15.2354C66.0894 14.7028 67.9977 15.1022 68.6457 14.7695C69.1336 14.2877 68.9212 13.0072 69.8994 12.3258L88.9886 0.525366C89.7777 -0.09552 91.3368 -0.249675 92.0556 0.526602L112.12 17.2199C112.758 17.778 112.199 19.8097 112.698 20.3374C113.259 20.9311 115.656 20.5431 116.302 20.9323L136.366 37.8893C137.157 38.7715 136.899 40.7183 137.481 41.3342C138.361 42.2424 140.502 41.6209 141.662 42.3962L163.399 61.2084C164.052 61.8688 164.215 63.5943 163.678 64.3881L138.11 114.935L122.169 126.383C121.86 126.6 120.946 126.439 120.617 126.693C120.402 126.876 120.714 127.624 120.39 127.863L110.76 135.132L113.251 146.521C113.311 147.263 113.058 148.006 112.678 148.39L92.8905 163.23C91.5328 164.277 90.0189 164.157 89.0388 163.469L68.3427 151.692C67.1628 151.249 67.234 150.318 66.615 150.001C65.8734 149.758 65.26 150.758 64.5814 150.365L44.3249 138.81C43.4757 138.253 43.847 136.978 42.7362 136.546C41.5599 136.386 41.4033 137.379 40.1213 136.546L26.2841 128.781C25.7884 128.55 25.1662 127.901 24.8907 127.191L18.1486 108.385C17.8305 107.708 18.6661 106.802 18.4432 106.185C18.2948 105.598 17.0447 105.121 16.7705 104.294L9.8103 82.9554C9.44676 82.0611 10.5302 80.7294 10.2983 79.8976C9.73655 78.7791 8.45168 79.2866 7.89063 78.1681L0.35019 55.2068C-0.350893 53.7704 0.0844436 52.5057 0.923259 51.9342L23.218 38.6848C24.1702 38.2189 25.3316 38.3521 26.2838 38.6848L39.3821 43.7199C40.5448 44.2299 41.5685 44.2083 41.612 43.4546L41.6122 43.4537Z" fill="#1A1A1A"/>
<path fill-rule="evenodd" clip-rule="evenodd" d="M104.786 44.1347C113.818 51.8937 114.762 53.7496 104.16 44.7899C93.5588 35.8297 92.4805 33.6654 104.786 44.1347Z" fill="#4D4D4D"/>
<path d="M66.092 50.0095C66.5761 50.0095 66.9685 49.4033 66.9685 48.6554C66.9685 47.9075 66.5761 47.3013 66.092 47.3013C65.6079 47.3013 65.2155 47.9075 65.2155 48.6554C65.2155 49.4033 65.6079 50.0095 66.092 50.0095Z" fill="#808080"/>
<path d="M116.154 55.3401C116.638 55.3401 117.031 54.7338 117.031 53.986C117.031 53.2381 116.638 52.6318 116.154 52.6318C115.67 52.6318 115.278 53.2381 115.278 53.986C115.278 54.7338 115.67 55.3401 116.154 55.3401Z" fill="#999999"/>
<path fill-rule="evenodd" clip-rule="evenodd" d="M131.272 66.7581C139.287 73.6432 140.124 75.2899 130.717 67.3395C121.31 59.3889 120.353 57.4682 131.272 66.7581Z" fill="#4D4D4D"/>
<path d="M142.744 77.845C143.229 77.845 143.621 77.2387 143.621 76.4908C143.621 75.743 143.229 75.1367 142.744 75.1367C142.26 75.1367 141.868 75.743 141.868 76.4908C141.868 77.2387 142.26 77.845 142.744 77.845Z" fill="#808080"/>
<path d="M117.469 95.9749C117.953 95.9749 118.345 95.3686 118.345 94.6207C118.345 93.8729 117.953 93.2666 117.469 93.2666C116.985 93.2666 116.592 93.8729 116.592 94.6207C116.592 95.3686 116.985 95.9749 117.469 95.9749Z" fill="#666666"/>
<path fill-rule="evenodd" clip-rule="evenodd" d="M107.456 85.304C115.47 92.1888 116.308 93.8355 106.901 85.8854C97.4936 77.9348 96.5366 76.0141 107.456 85.304Z" fill="#666666"/>
<path d="M90.9509 33.1272C91.435 33.1272 91.8274 32.5209 91.8274 31.7731C91.8274 31.0252 91.435 30.4189 90.9509 30.4189C90.4668 30.4189 90.0743 31.0252 90.0743 31.7731C90.0743 32.5209 90.4668 33.1272 90.9509 33.1272Z" fill="#808080"/>
<path fill-rule="evenodd" clip-rule="evenodd" d="M79.9736 22.3605C87.9883 29.2453 88.826 30.8923 79.4187 22.9419C70.0138 14.9916 69.0553 13.0706 79.9747 22.3607L79.9736 22.3605Z" fill="#333333"/>
<path fill-rule="evenodd" clip-rule="evenodd" d="M55.5087 39.9935C63.5235 46.8785 64.3612 48.5252 54.9538 40.5748C45.5466 32.6242 44.5896 30.7036 55.5087 39.9935Z" fill="#333333"/>
<path d="M68.1161 82.4627C68.8764 82.4627 69.4928 81.8564 69.4928 81.1085C69.4928 80.3607 68.8764 79.7544 68.1161 79.7544C67.3558 79.7544 66.7395 80.3607 66.7395 81.1085C66.7395 81.8564 67.3558 82.4627 68.1161 82.4627Z" fill="#808080"/>
<path d="M43.3354 71.8982C43.8195 71.8982 44.2119 71.2919 44.2119 70.5441C44.2119 69.7962 43.8195 69.1899 43.3354 69.1899C42.8513 69.1899 42.4589 69.7962 42.4589 70.5441C42.4589 71.2919 42.8513 71.8982 43.3354 71.8982Z" fill="#808080"/>
<path d="M20.4505 62.2989C20.9346 62.2989 21.327 61.8535 21.327 61.304C21.327 60.7545 20.9346 60.3091 20.4505 60.3091C19.9664 60.3091 19.574 60.7545 19.574 61.304C19.574 61.8535 19.9664 62.2989 20.4505 62.2989Z" fill="#808080"/>
<path d="M29.5264 90.8145C30.0105 90.8145 30.403 90.3691 30.403 89.8196C30.403 89.2702 30.0105 88.8247 29.5264 88.8247C29.0423 88.8247 28.6499 89.2702 28.6499 89.8196C28.6499 90.3691 29.0423 90.8145 29.5264 90.8145Z" fill="#666666"/>
<path d="M75.9399 111.413C76.5687 111.413 77.0784 110.911 77.0784 110.293C77.0784 109.674 76.5687 109.173 75.9399 109.173C75.3111 109.173 74.8014 109.674 74.8014 110.293C74.8014 110.911 75.3111 111.413 75.9399 111.413Z" fill="#666666"/>
<path d="M84.4415 139.088C85.0703 139.088 85.58 138.587 85.58 137.968C85.58 137.35 85.0703 136.848 84.4415 136.848C83.8127 136.848 83.303 137.35 83.303 137.968C83.303 138.587 83.8127 139.088 84.4415 139.088Z" fill="#4D4D4D"/>
<path d="M59.7767 128.458C60.4054 128.458 60.9152 127.957 60.9152 127.338C60.9152 126.72 60.4054 126.218 59.7767 126.218C59.1479 126.218 58.6382 126.72 58.6382 127.338C58.6382 127.957 59.1479 128.458 59.7767 128.458Z" fill="#4D4D4D"/>
<path d="M37.391 116.878C37.7881 116.878 38.1101 116.561 38.1101 116.171C38.1101 115.78 37.7881 115.463 37.391 115.463C36.9938 115.463 36.6719 115.78 36.6719 116.171C36.6719 116.561 36.9938 116.878 37.391 116.878Z" fill="#333333"/>
<path d="M52.2191 101.128C52.7031 101.128 53.0956 100.683 53.0956 100.134C53.0956 99.5841 52.7031 99.1387 52.2191 99.1387C51.735 99.1387 51.3425 99.5841 51.3425 100.134C51.3425 100.683 51.735 101.128 52.2191 101.128Z" fill="#666666"/>
<path fill-rule="evenodd" clip-rule="evenodd" d="M56.7885 75.6808C64.6958 78.8603 65.777 79.8889 56.5312 76.2551C47.2854 72.6213 46.0399 71.4168 56.7885 75.6808Z" fill="#666666"/>
<path fill-rule="evenodd" clip-rule="evenodd" d="M32.4538 66.301C40.3611 69.4805 41.4424 70.5088 32.1965 66.8753C22.9506 63.2413 21.7052 62.037 32.4538 66.301Z" fill="#666666"/>
<path fill-rule="evenodd" clip-rule="evenodd" d="M10.8968 57.3116C17.3887 59.9222 18.2762 60.7664 10.6856 57.783C3.09508 54.7999 2.07236 53.8109 10.8968 57.3116Z" fill="#666666"/>
<path fill-rule="evenodd" clip-rule="evenodd" d="M47.7716 27.7256L65.808 16.8549C66.5805 16.3891 67.6533 16.4558 68.3472 17.0375L86.1861 32.0042C86.8801 32.5862 86.7992 33.571 86.0497 34.0661L68.2774 45.8126C67.5295 46.3065 66.4181 46.2253 65.7382 45.63L47.6351 29.7875C46.9547 29.1928 46.9981 28.1934 47.7712 27.7254L47.7716 27.7256Z" fill="#88BDFC"/>
<path fill-rule="evenodd" clip-rule="evenodd" d="M72.7519 12.3729L89.3619 1.95317C90.0763 1.50494 91.0903 1.57878 91.7378 2.12399L108.952 16.6254C109.6 17.1706 109.534 18.1041 108.825 18.5545L91.9353 29.2935C91.2283 29.7433 90.1956 29.6793 89.5598 29.1227L72.624 14.302C71.9898 13.7436 72.042 12.8199 72.7543 12.3717L72.7519 12.3729Z" fill="#88BDFC"/>
<path fill-rule="evenodd" clip-rule="evenodd" d="M97.8742 33.758L114.221 23.2136C114.93 22.7565 115.946 22.8433 116.597 23.3845L134.469 38.2617C135.12 38.8029 135.034 39.7181 134.342 40.1908L118.241 51.1795C117.551 51.6506 116.511 51.5542 115.866 51.0084L97.7468 35.6871C97.1007 35.141 97.166 34.2152 97.8742 33.758L97.8742 33.758Z" fill="#88BDFC"/>
<path fill-rule="evenodd" clip-rule="evenodd" d="M122.472 55.2686L138.82 43.7234C139.507 43.2378 140.558 43.3413 141.195 43.8942L160.514 60.6486C161.152 61.2015 161.065 62.0918 160.386 62.5777L144.681 73.8162C144.003 74.3009 142.957 74.1825 142.305 73.6454L122.345 57.1977C121.693 56.6605 121.785 55.7545 122.472 55.2686H122.472Z" fill="#88BDFC"/>
<path fill-rule="evenodd" clip-rule="evenodd" d="M72.4913 49.8911L90.4163 37.7206C91.1131 37.2477 92.1424 37.3505 92.7921 37.8914L111.849 53.7691C112.498 54.31 112.392 55.2028 111.721 55.6982L98.5138 65.4365C97.8449 65.9298 96.6309 65.9378 96.1383 65.2657C94.5809 63.1404 93.1385 61.8288 91.0713 61.1402L76.9113 56.4222L72.3637 51.8202C71.7728 51.2218 71.7945 50.364 72.4914 49.8911H72.4913Z" fill="#88BDFC"/>
<path fill-rule="evenodd" clip-rule="evenodd" d="M97.8366 72.7354L115.873 59.989C116.607 59.47 117.716 59.5942 118.413 60.1715L137.961 76.3893C138.658 76.9669 138.54 77.9143 137.825 78.4512L120.184 91.6982C119.471 92.2332 118.337 92.0964 117.645 91.5154L97.7008 74.7976C97.0071 74.2159 97.103 73.2543 97.8369 72.7357L97.8366 72.7354Z" fill="#88BDFC"/>
<path fill-rule="evenodd" clip-rule="evenodd" d="M139.009 83.6465L132.85 96.6724C132.64 97.116 132.447 97.4966 131.976 97.8598L115.649 110.453C115.178 110.817 114.273 110.598 114.409 110.155L117.771 99.1368C117.906 98.6954 118.173 98.3102 118.645 97.9494L137.768 83.3481C138.242 82.987 139.219 83.2029 139.009 83.6465V83.6465Z" fill="#2A4BB7"/>
<path fill-rule="evenodd" clip-rule="evenodd" d="M161.766 67.0115L154.818 80.1624C154.584 80.6035 154.421 80.9909 153.944 81.3501L138.537 92.9424C138.06 93.3017 137.093 93.0845 137.296 92.644L143.29 79.6255C143.492 79.1866 143.676 78.7869 144.163 78.4381L160.525 66.7131C161.013 66.3634 161.999 66.5701 161.766 67.0115L161.766 67.0115Z" fill="#2A4BB7"/>
<path fill-rule="evenodd" clip-rule="evenodd" d="M152.425 85.5218L145.475 99.0479C145.248 99.4897 145.1 99.8928 144.601 100.235L131.168 109.452C130.669 109.795 129.728 109.595 129.928 109.153L134.869 98.2605C135.069 97.8206 135.272 97.4345 135.743 97.0731L151.184 85.2236C151.655 84.8616 152.651 85.08 152.424 85.5217L152.425 85.5218Z" fill="#2A4BB7"/>
<path fill-rule="evenodd" clip-rule="evenodd" d="M131.118 101.656L125.091 113.431C124.865 113.873 124.659 114.237 124.217 114.618L111.352 124.413C110.909 124.794 109.984 124.556 110.111 124.115L112.905 114.895C113.039 114.455 113.309 114.068 113.779 113.708L129.877 101.357C130.35 100.996 131.345 101.214 131.118 101.656L131.118 101.656Z" fill="#2A4BB7"/>
<path fill-rule="evenodd" clip-rule="evenodd" d="M142.962 103.831L137.375 114.216C137.175 114.586 137.056 114.924 136.639 115.215L124.28 123.849C123.863 124.14 123.06 123.969 123.235 123.598L127.921 113.679C128.096 113.309 128.238 112.966 128.657 112.679L141.917 103.579C142.336 103.292 143.161 103.46 142.962 103.831L142.962 103.831Z" fill="#2A4BB7"/>
<path fill-rule="evenodd" clip-rule="evenodd" d="M123.107 118.077L119.396 127.28C119.277 127.574 119.128 127.824 118.818 128.065L111.363 133.66C111.053 133.901 110.598 133.732 110.542 133.463L109.373 127.832C109.318 127.564 109.496 127.424 109.805 127.185L122.286 117.879C122.601 117.645 123.244 117.783 123.106 118.076L123.107 118.077Z" fill="#2A4BB7"/>
<path fill-rule="evenodd" clip-rule="evenodd" d="M114.585 105.78C112.465 112.751 111.569 113.78 113.961 105.64C116.354 97.5 117.407 96.3117 114.585 105.78Z" fill="#666666"/>
<path fill-rule="evenodd" clip-rule="evenodd" d="M78.9457 106.361L97.6079 93.2692C98.3441 92.7527 98.8749 91.9372 98.6884 91.0766L93.8603 69.2199C93.6712 68.3605 92.7479 67.9911 91.9045 68.3194L72.0494 81.8222C71.3126 82.3235 70.7769 83.156 70.9689 84.0148L76.99 105.461C77.2246 106.31 78.2099 106.878 78.9457 106.361Z" fill="#2A4BB7"/>
<path fill-rule="evenodd" clip-rule="evenodd" d="M87.0302 134.576L104.763 122.083C105.499 121.566 106.03 120.751 105.844 119.891L100.731 99.4967C100.518 98.6436 99.6188 98.2683 98.7757 98.5963L80.5734 110.928C79.8382 111.427 79.3012 112.262 79.4929 113.121L85.0741 133.676C85.3048 134.524 86.294 135.093 87.0302 134.576L87.0302 134.576Z" fill="#2A4BB7"/>
<path fill-rule="evenodd" clip-rule="evenodd" d="M94.4777 161.043L111.248 148.469C111.891 147.987 112.377 147.267 112.211 146.491L107.296 126.654C107.14 125.876 106.304 125.546 105.553 125.842L87.9936 138.243C87.3448 138.701 86.8598 139.447 87.0307 140.222L92.7344 160.231C92.9521 160.993 93.8345 161.525 94.4774 161.043H94.4777Z" fill="#2A4BB7"/>
<path fill-rule="evenodd" clip-rule="evenodd" d="M89.6247 63.9991L69.5298 77.4496C68.8648 77.895 67.7904 78.0408 66.934 77.7582L48.3553 70.2236C47.5395 69.8928 47.3582 69.2611 47.9281 68.7647L66.8077 56.0983C67.4665 55.6566 68.5503 55.5043 69.4034 55.7897L89.1978 62.5399C90.047 62.83 90.2897 63.5537 89.6246 63.9988L89.6247 63.9991Z" fill="#88BDFC"/>
<path fill-rule="evenodd" clip-rule="evenodd" d="M63.3412 54.6409L44.3742 67.1987C43.7465 67.6145 42.7326 67.7504 41.924 67.4869L24.3865 60.4496C23.6165 60.1412 23.4454 59.5521 23.9837 59.0868L41.8032 47.2613C42.425 46.8486 43.4484 46.7065 44.2534 46.9731L62.9367 53.2752C63.7382 53.5458 63.9676 54.2214 63.3399 54.6375L63.3412 54.6409Z" fill="#88BDFC"/>
<path fill-rule="evenodd" clip-rule="evenodd" d="M38.329 45.9379L20.4255 57.5737C19.8485 57.9487 18.9305 58.076 18.1943 57.836L4.32984 52.4308C3.62476 52.1554 3.4739 51.6131 3.96384 51.1918L22.086 40.0227C22.6717 39.6616 23.584 39.5176 24.3169 39.7601L37.963 44.6989C38.6803 44.9587 38.9071 45.5641 38.3301 45.9391L38.329 45.9379Z" fill="#88BDFC"/>
<path fill-rule="evenodd" clip-rule="evenodd" d="M47.5891 75.3729L64.8394 82.2023C65.4953 82.4621 66.1265 83.2748 66.3319 84.1395L71.8335 105.166C72.0596 106.029 71.5986 106.544 70.9505 106.37L54.317 98.7563C53.6699 98.4601 53.0259 97.6829 52.8248 96.8195L46.7061 76.5773C46.4469 75.7192 46.9329 75.0983 47.5891 75.3729Z" fill="#425973"/>
<path fill-rule="evenodd" clip-rule="evenodd" d="M57.4284 105.081L72.9396 112.176C73.5952 112.476 74.2268 113.248 74.4318 114.113L80.0652 133.706C80.313 134.569 79.8306 135.085 79.1825 134.911L63.0858 127.501C62.4377 127.203 61.7947 126.428 61.5936 125.564L56.5454 106.285C56.32 105.424 56.7725 104.806 57.4284 105.081Z" fill="#425973"/>
<path fill-rule="evenodd" clip-rule="evenodd" d="M64.6326 131.633L80.9366 139.224C81.5292 139.499 82.1 140.193 82.2855 140.974L87.4958 160.312C87.706 161.091 87.2837 161.558 86.698 161.401L70.1861 151.808C69.6069 151.469 69.0191 150.836 68.8367 150.054L63.834 132.718C63.6102 131.942 64.039 131.381 64.6319 131.63L64.6326 131.633Z" fill="#425973"/>
<path fill-rule="evenodd" clip-rule="evenodd" d="M24.5576 66.1856L40.2715 72.5888C40.8586 72.8279 41.4235 73.5486 41.6071 74.3224L47.6568 94.3936C47.8891 95.1643 47.4467 95.6271 46.8668 95.4717L31.0906 88.2108C30.5124 87.9442 29.9354 87.2504 29.7554 86.4775L23.7676 67.2634C23.5285 66.4955 23.9707 65.9395 24.5577 66.1853L24.5576 66.1856Z" fill="#425973"/>
<path fill-rule="evenodd" clip-rule="evenodd" d="M3.15923 57.5213L17.7887 63.41C18.3244 63.6256 18.8396 64.2857 19.0073 64.9918L25.022 84.5438C25.2381 85.2462 24.8304 85.6697 24.3008 85.5276L9.91143 78.7254C9.38472 78.4777 8.85714 77.8499 8.69296 77.1451L2.43846 58.5058C2.20467 57.8065 2.62375 57.2972 3.15947 57.5229L3.15923 57.5213Z" fill="#425973"/>
<path fill-rule="evenodd" clip-rule="evenodd" d="M33.3022 93.9818L49.0279 101.36C49.6471 101.65 50.2429 102.372 50.4366 103.188L55.8343 121.861C56.0698 122.674 55.6127 123.162 55.001 122.998L39.2208 115.464C38.6097 115.171 38.0022 114.45 37.8121 113.635L32.4683 95.1191C32.2344 94.3079 32.6824 93.7229 33.3019 93.982L33.3022 93.9818Z" fill="#425973"/>
<path fill-rule="evenodd" clip-rule="evenodd" d="M12.5049 84.291L26.2851 90.6537C26.904 90.9395 27.5001 91.666 27.6937 92.4821L33.0211 110.833C33.2576 111.647 32.7995 112.134 32.1878 111.97L19.0067 105.544C18.3975 105.247 17.7879 104.531 17.598 103.716L11.6716 85.4285C11.41 84.6211 11.886 84.032 12.5052 84.2915L12.5049 84.291Z" fill="#425973"/>
<path fill-rule="evenodd" clip-rule="evenodd" d="M41.5402 120.823L57.0334 127.993C57.636 128.272 58.2163 128.979 58.405 129.773L63.8621 147.724C64.1025 148.515 63.6464 148.991 63.0506 148.831L46.7877 139.487C46.1977 139.148 45.6009 138.501 45.4161 137.707L40.7287 121.93C40.4944 121.142 40.9372 120.571 41.5402 120.823V120.823Z" fill="#425973"/>
<path fill-rule="evenodd" clip-rule="evenodd" d="M21.1791 111.05L34.1398 117.046C34.7587 117.332 35.3549 118.058 35.5485 118.874L40.0567 134.201C40.2958 135.014 39.8351 135.502 39.2234 135.338L27.0054 128.408C26.4034 128.064 25.7895 127.395 25.5995 126.58L20.3481 112.187C20.056 111.386 20.5625 110.791 21.1817 111.05L21.1791 111.05Z" fill="#425973"/>
<path fill-rule="evenodd" clip-rule="evenodd" d="M80.2603 73.7872C72.2789 78.9267 70.5991 79.2665 79.8487 73.2059C89.0978 67.1451 91.0524 66.7655 80.2603 73.7872Z" fill="#666666"/>
</g>
<defs>
<clipPath id="clip0">
<rect width="164" height="164" fill="white"/>
</clipPath>
</defs>
</svg>
